<svg width="23" height="28" viewBox="0 0 23 28" fill="none" xmlns="http://www.w3.org/2000/svg">
<path d="M6.16634 15.3329H16.833V12.6663H6.16634V15.3329ZM6.16634 19.3329H16.833V16.6663H6.16634V19.3329ZM6.16634 23.3329H12.833V20.6663H6.16634V23.3329ZM3.49967 27.3329C2.76634 27.3329 2.13879 27.072 1.61701 26.5503C1.09523 26.0285 0.833897 25.4005 0.833008 24.6663V3.33293C0.833008 2.59959 1.09434 1.97204 1.61701 1.45026C2.13967 0.928482 2.76723 0.667149 3.49967 0.66626H14.1663L22.1663 8.66626V24.6663C22.1663 25.3996 21.9055 26.0276 21.3837 26.5503C20.8619 27.0729 20.2339 27.3338 19.4997 27.3329H3.49967ZM12.833 9.99959H19.4997L12.833 3.33293V9.99959Z" fill="white"/>
</svg>
